<svg xmlns="http://www.w3.org/2000/svg" data-name="Layer 1" viewBox="0 0 64 64"><rect width="38" height="62" x="13" y="1" fill="#c9f0ff" rx="8" ry="8"/><path fill="#0067ff" d="M43 64H21a9 9 0 0 1-9-9V9a9 9 0 0 1 9-9h22a9 9 0 0 1 9 9v46a9 9 0 0 1-9 9ZM21 2a7 7 0 0 0-7 7v46a7 7 0 0 0 7 7h22a7 7 0 0 0 7-7V9a7 7 0 0 0-7-7Z"/><path fill="#0067ff" d="M12 40h40v2H12z"/><rect width="4" height="12" x="20" y="8" fill="#fff" rx="2" ry="2"/><rect width="2" height="12" x="44" y="24" fill="#0067ff" rx="1" ry="1"/></svg>