<svg xmlns="http://www.w3.org/2000/svg" viewBox="0 0 64 64"><defs><linearGradient id="a" x1="7.824" x2="56.176" y1="31.995" y2="31.995" gradientUnits="userSpaceOnUse"><stop offset="0" stop-color="#00c0ff"/><stop offset="1" stop-color="#5558ff"/></linearGradient></defs><path fill="url(#a)" d="M53.62614,19.40221,36.24924,5.49473a6.7696,6.7696,0,0,0-8.49848,0L10.37386,19.40221a6.74924,6.74924,0,0,0-2.54953,5.29911V53.20617A6.80376,6.80376,0,0,0,14.6231,59.995H49.3769a6.80376,6.80376,0,0,0,6.79877-6.78883V24.70132A6.74924,6.74924,0,0,0,53.62614,19.40221ZM39.63865,57.99535H37.639V46.11747a4.666,4.666,0,0,0-4.66921-4.6592H31.0302a4.666,4.666,0,0,0-4.66921,4.6592V57.99535H24.36135V46.11747a6.67152,6.67152,0,0,1,6.66885-6.65884h1.9396a6.67152,6.67152,0,0,1,6.66885,6.65884Z"/></svg>