<svg xmlns="http://www.w3.org/2000/svg" data-name="Layer 2" viewBox="0 0 64 64"><defs><linearGradient id="a" x1="32.08" x2="32.08" y1="21.11" y2="61" gradientUnits="userSpaceOnUse"><stop offset=".25" stop-color="#3fc4ff"/><stop offset="1" stop-color="#1270ff"/></linearGradient><linearGradient id="b" x1="32.94" x2="32.94" y1="3" y2="61.5" gradientUnits="userSpaceOnUse"><stop offset=".04" stop-color="#dbf4ff"/><stop offset="1" stop-color="#6de3ff"/></linearGradient><linearGradient id="c" x1="32.94" x2="32.94" y1="21.11" y2="61" gradientUnits="userSpaceOnUse"><stop offset="0" stop-color="#76d5ff"/><stop offset=".75" stop-color="#12fffb"/></linearGradient></defs><path fill="url(#a)" d="M57.9,21.1c-1,0-2.6.7-5.2,1.9a22.2,22.2,0,0,1-4.3,1.7h0c-1.3,0-1.3-.5-1.3-.8h0c0-1.6-1.2-2.7-3.3-2.7s-2.6.7-5.2,1.9a20.9,20.9,0,0,1-4.3,1.7c-1.3,0-1.3-.5-1.3-.8v-.3c-.2-1.4-1.4-2.3-3.2-2.4s-2.6.7-5.2,1.9a23.8,23.8,0,0,1-4.3,1.7c-1.3,0-1.3-.5-1.3-.8h0c0-1.6-1.3-2.7-3.3-2.7s-2.6.7-5.2,1.9-3.7,1.7-4.3,1.7S5,24.4,5,24.1H5a1,1,0,0,0-1-1H4a1,1,0,0,0-1,1H3V60a1,1,0,0,0,1,1H60a1,1,0,0,0,1-1l.2-36C61.2,22.3,59.9,21.2,57.9,21.1Z"/><path fill="url(#b)" d="M56.5,26.7,56,22.9l-1.9-9.1a1,1,0,0,0-.4-.6l-2.6-1.8L47.7,3.7a1,1,0,0,0-.9-.6L33.2,3a1,1,0,0,0-.8.3l-7.3,8.3-8.5,2.3a1,1,0,0,0-.6.5l-4,7.6L9,28.7a1,1,0,0,0,.1.9l5.4,8.8,1.3,4.1a1,1,0,0,0,.5.6l4.5,2.5,2.7,7.2a1,1,0,0,0,.8.6l3.4.6L33,61.1a1,1,0,0,0,.8.4h.1a1,1,0,0,0,.8-.6l5.5-11.4,3.7-.9a1,1,0,0,0,.6-.4l3-4.9H52a1,1,0,0,0,1-.8L54.6,33l1.8-.8a1,1,0,0,0,.6-1Z"/><path fill="url(#c)" d="M34.7,60.9l5.5-11.4,3.7-.9a1,1,0,0,0,.6-.4l3-4.9H52a1,1,0,0,0,1-.8L54.6,33l1.8-.8a1,1,0,0,0,.6-1l-.5-4.5L56,22.9l-.3-1.2L52.7,23a22.2,22.2,0,0,1-4.3,1.7h0c-1.3,0-1.3-.5-1.3-.8h0c0-1.6-1.2-2.7-3.3-2.7s-2.6.7-5.2,1.9a20.9,20.9,0,0,1-4.3,1.7c-1.3,0-1.3-.5-1.3-.8v-.3c-.2-1.4-1.4-2.3-3.2-2.4s-2.6.7-5.2,1.9a23.8,23.8,0,0,1-4.3,1.7c-1.3,0-1.3-.5-1.3-.8h0c0-1.6-1.3-2.7-3.3-2.7s-2.1.5-4.1,1.4L9,28.7a1,1,0,0,0,.1.9l5.4,8.8,1.3,4.1a1,1,0,0,0,.5.6l4.5,2.5,2.7,7.2a1,1,0,0,0,.8.6l3.4.6L33,61h1.8Z"/><path fill="#5fdefd" d="M38.3 10a21.6 21.6 0 0 1-3.6 3.8 27.4 27.4 0 0 1-4.1 3l.2 5.4a1 1 0 0 1-1 1h0a1 1 0 0 1-1-1l-.2-5.6-5-4.6 1.5-.4.5-.5 4.2 3.8a29.4 29.4 0 0 1 3.8-2.7A22.3 22.3 0 0 1 38.3 10zM51.6 11.6l-2.3 1.5-2.2 1.4L45 15.7a15.4 15.4 0 0 1-1 2.5 16.6 16.6 0 0 1-.4-3.1.5.5 0 0 1 .2-.4H44l2-1.6 2.1-1.6 2.3-1.6.7 1.6z"/><path fill="#40c3fd" d="M49.7 38.4c-.1 1.7-.2 3.3-.4 5H47.6l-.5.8a48.7 48.7 0 0 1 .7-6L48 37a35 35 0 0 1-4.9-2 26.5 26.5 0 0 1-4.9-3 26.7 26.7 0 0 1 5.6 1.2 36.6 36.6 0 0 1 4.6 1.8 29.4 29.4 0 0 1 1-3.5A37 37 0 0 1 49.7 38.4zM23.4 33.1a.5.5 0 0 1-.2.5H23L18.2 37l-3.6 2-.2-.5-.8-1.4 3.5-2L22 32.7a23.3 23.3 0 0 1 .4-3A24.8 24.8 0 0 1 23.4 33.1z"/></svg>